<mxfile host="Electron" modified="2024-05-30T05:00:50.065Z" agent="Mozilla/5.0 (Macintosh; Intel Mac OS X 10_15_7) AppleWebKit/537.36 (KHTML, like Gecko) draw.io/24.4.8 Chrome/124.0.6367.207 Electron/30.0.6 Safari/537.36" etag="9xU90i1UiQpK6-g-sg2Z" version="24.4.8" type="device">
  <diagram name="第 1 页" id="UDnsX7s3yEXar_l04Kcb">
    <mxGraphModel dx="1728" dy="674" grid="1" gridSize="10" guides="1" tooltips="1" connect="1" arrows="1" fold="1" page="1" pageScale="1" pageWidth="827" pageHeight="1169" math="0" shadow="0">
      <root>
        <mxCell id="0" />
        <mxCell id="1" parent="0" />
        <mxCell id="DgKnifjsaxeWWXN-sLly-2" value="&lt;font style=&quot;font-size: 16px;&quot;&gt;saturn-console&lt;/font&gt;" style="rounded=1;whiteSpace=wrap;html=1;fillColor=#dae8fc;strokeColor=#6c8ebf;" vertex="1" parent="1">
          <mxGeometry x="-120" y="390" width="120" height="60" as="geometry" />
        </mxCell>
        <mxCell id="DgKnifjsaxeWWXN-sLly-3" value="" style="rounded=0;whiteSpace=wrap;html=1;fillColor=#f5f5f5;strokeColor=#666666;fontColor=#333333;" vertex="1" parent="1">
          <mxGeometry x="100" y="360" width="570" height="250" as="geometry" />
        </mxCell>
        <mxCell id="DgKnifjsaxeWWXN-sLly-4" value="&lt;font style=&quot;font-size: 16px;&quot;&gt;saturn-executor&lt;/font&gt;" style="ellipse;whiteSpace=wrap;html=1;fillColor=#fff2cc;strokeColor=#d6b656;" vertex="1" parent="1">
          <mxGeometry x="130" y="380" width="120" height="80" as="geometry" />
        </mxCell>
        <mxCell id="DgKnifjsaxeWWXN-sLly-5" value="&lt;font style=&quot;font-size: 16px;&quot;&gt;Service Process&lt;/font&gt;" style="rounded=1;whiteSpace=wrap;html=1;fillColor=#d5e8d4;strokeColor=#82b366;" vertex="1" parent="1">
          <mxGeometry x="540" y="390" width="120" height="60" as="geometry" />
        </mxCell>
        <mxCell id="DgKnifjsaxeWWXN-sLly-6" value="&lt;font style=&quot;font-size: 12px;&quot;&gt;execute task&lt;/font&gt;" style="endArrow=classic;html=1;exitX=1;exitY=0.5;exitDx=0;exitDy=0;entryX=0;entryY=0.5;entryDx=0;entryDy=0;" edge="1" parent="1" source="DgKnifjsaxeWWXN-sLly-2" target="DgKnifjsaxeWWXN-sLly-4">
          <mxGeometry width="50" height="50" relative="1" as="geometry">
            <mxPoint x="10" y="580" as="sourcePoint" />
            <mxPoint x="60" y="530" as="targetPoint" />
          </mxGeometry>
        </mxCell>
        <mxCell id="DgKnifjsaxeWWXN-sLly-7" value="&lt;font style=&quot;font-size: 14px;&quot;&gt;saturn-cli bin&lt;/font&gt;" style="rounded=0;whiteSpace=wrap;html=1;fillColor=#dae8fc;strokeColor=#6c8ebf;" vertex="1" parent="1">
          <mxGeometry x="310" y="402.5" width="90" height="35" as="geometry" />
        </mxCell>
        <mxCell id="DgKnifjsaxeWWXN-sLly-8" value="&lt;font style=&quot;font-size: 12px;&quot;&gt;fork&lt;/font&gt;" style="endArrow=classic;html=1;rounded=0;exitX=1;exitY=0.5;exitDx=0;exitDy=0;entryX=0;entryY=0.5;entryDx=0;entryDy=0;" edge="1" parent="1" source="DgKnifjsaxeWWXN-sLly-4" target="DgKnifjsaxeWWXN-sLly-7">
          <mxGeometry width="50" height="50" relative="1" as="geometry">
            <mxPoint x="260" y="480" as="sourcePoint" />
            <mxPoint x="310" y="430" as="targetPoint" />
          </mxGeometry>
        </mxCell>
        <mxCell id="DgKnifjsaxeWWXN-sLly-9" value="&lt;font style=&quot;font-size: 12px;&quot;&gt;uds - execute task&lt;/font&gt;" style="endArrow=classic;html=1;rounded=0;exitX=1;exitY=0.5;exitDx=0;exitDy=0;entryX=0;entryY=0.5;entryDx=0;entryDy=0;" edge="1" parent="1" source="DgKnifjsaxeWWXN-sLly-7" target="DgKnifjsaxeWWXN-sLly-5">
          <mxGeometry width="50" height="50" relative="1" as="geometry">
            <mxPoint x="470" y="490" as="sourcePoint" />
            <mxPoint x="520" y="440" as="targetPoint" />
          </mxGeometry>
        </mxCell>
        <mxCell id="DgKnifjsaxeWWXN-sLly-10" value="&lt;font style=&quot;font-size: 12px;&quot;&gt;listen&lt;/font&gt;" style="endArrow=classic;html=1;rounded=0;exitX=0.5;exitY=1;exitDx=0;exitDy=0;entryX=0.5;entryY=0;entryDx=0;entryDy=0;dashed=1;" edge="1" parent="1" source="DgKnifjsaxeWWXN-sLly-7" target="DgKnifjsaxeWWXN-sLly-11">
          <mxGeometry width="50" height="50" relative="1" as="geometry">
            <mxPoint x="350" y="530" as="sourcePoint" />
            <mxPoint x="400" y="480" as="targetPoint" />
          </mxGeometry>
        </mxCell>
        <mxCell id="DgKnifjsaxeWWXN-sLly-11" value="&lt;font style=&quot;font-size: 14px;&quot;&gt;Linux Signal&lt;/font&gt;" style="ellipse;whiteSpace=wrap;html=1;aspect=fixed;fillColor=#ffe6cc;strokeColor=#d79b00;" vertex="1" parent="1">
          <mxGeometry x="325" y="490" width="60" height="60" as="geometry" />
        </mxCell>
        <mxCell id="DgKnifjsaxeWWXN-sLly-12" value="&lt;font style=&quot;font-size: 12px;&quot;&gt;uds - stop task&lt;/font&gt;" style="endArrow=classic;html=1;rounded=0;exitX=1;exitY=0.5;exitDx=0;exitDy=0;entryX=0.5;entryY=1;entryDx=0;entryDy=0;edgeStyle=orthogonalEdgeStyle;dashed=1;" edge="1" parent="1" source="DgKnifjsaxeWWXN-sLly-11" target="DgKnifjsaxeWWXN-sLly-5">
          <mxGeometry x="0.0035" width="50" height="50" relative="1" as="geometry">
            <mxPoint x="470" y="560" as="sourcePoint" />
            <mxPoint x="520" y="510" as="targetPoint" />
            <mxPoint as="offset" />
          </mxGeometry>
        </mxCell>
        <mxCell id="DgKnifjsaxeWWXN-sLly-13" value="&lt;font style=&quot;font-size: 12px;&quot;&gt;stop task&lt;/font&gt;" style="endArrow=classic;html=1;rounded=0;exitX=1;exitY=0.75;exitDx=0;exitDy=0;entryX=0;entryY=1;entryDx=0;entryDy=0;edgeStyle=orthogonalEdgeStyle;strokeColor=#FF0000;" edge="1" parent="1" source="DgKnifjsaxeWWXN-sLly-2" target="DgKnifjsaxeWWXN-sLly-4">
          <mxGeometry x="-0.0054" width="50" height="50" relative="1" as="geometry">
            <mxPoint x="-40" y="560" as="sourcePoint" />
            <mxPoint x="10" y="510" as="targetPoint" />
            <Array as="points">
              <mxPoint x="30" y="435" />
              <mxPoint x="30" y="448" />
            </Array>
            <mxPoint as="offset" />
          </mxGeometry>
        </mxCell>
        <mxCell id="DgKnifjsaxeWWXN-sLly-14" value="&lt;font style=&quot;font-size: 12px;&quot;&gt;send teminated signal&lt;/font&gt;" style="endArrow=classic;html=1;rounded=0;exitX=1;exitY=1;exitDx=0;exitDy=0;entryX=0;entryY=0.5;entryDx=0;entryDy=0;edgeStyle=orthogonalEdgeStyle;strokeColor=#FF0000;" edge="1" parent="1" source="DgKnifjsaxeWWXN-sLly-4" target="DgKnifjsaxeWWXN-sLly-11">
          <mxGeometry width="50" height="50" relative="1" as="geometry">
            <mxPoint x="180" y="550" as="sourcePoint" />
            <mxPoint x="230" y="500" as="targetPoint" />
            <Array as="points">
              <mxPoint x="232" y="520" />
            </Array>
          </mxGeometry>
        </mxCell>
        <mxCell id="DgKnifjsaxeWWXN-sLly-15" value="&lt;font style=&quot;font-size: 14px;&quot;&gt;Crtl +C&lt;/font&gt;" style="rounded=1;whiteSpace=wrap;html=1;fillColor=#fff2cc;strokeColor=#d6b656;" vertex="1" parent="1">
          <mxGeometry x="120" y="560" width="70" height="30" as="geometry" />
        </mxCell>
        <mxCell id="DgKnifjsaxeWWXN-sLly-16" value="" style="endArrow=classic;html=1;rounded=0;exitX=1;exitY=0.5;exitDx=0;exitDy=0;entryX=0.5;entryY=1;entryDx=0;entryDy=0;strokeColor=#0000FF;edgeStyle=orthogonalEdgeStyle;" edge="1" parent="1" source="DgKnifjsaxeWWXN-sLly-15" target="DgKnifjsaxeWWXN-sLly-11">
          <mxGeometry width="50" height="50" relative="1" as="geometry">
            <mxPoint x="280" y="610" as="sourcePoint" />
            <mxPoint x="330" y="560" as="targetPoint" />
          </mxGeometry>
        </mxCell>
        <mxCell id="DgKnifjsaxeWWXN-sLly-17" value="&lt;font style=&quot;font-size: 12px;&quot;&gt;send interrupt signal&lt;/font&gt;" style="edgeLabel;html=1;align=center;verticalAlign=middle;resizable=0;points=[];" vertex="1" connectable="0" parent="DgKnifjsaxeWWXN-sLly-16">
          <mxGeometry x="-0.4156" y="-1" relative="1" as="geometry">
            <mxPoint as="offset" />
          </mxGeometry>
        </mxCell>
      </root>
    </mxGraphModel>
  </diagram>
</mxfile>
